<?xml version="1.0" encoding="UTF-8"?>
<svg version="1.1" xmlns="http://www.w3.org/2000/svg" width="180" height="180">
<path d="M0 0 C59.4 0 118.8 0 180 0 C180 59.4 180 118.8 180 180 C120.6 180 61.2 180 0 180 C0 120.6 0 61.2 0 0 Z " fill="#FEFEFE" transform="translate(0,0)"/>
<path d="M0 0 C5.97420013 3.55667423 10.39626017 8.9522255 12.625 15.5 C12.86550903 18.15132141 12.86550903 18.15132141 12.85205078 21.0246582 C12.85189972 22.10540115 12.85174866 23.1861441 12.85159302 24.29963684 C12.84127045 25.4550145 12.83094788 26.61039215 12.8203125 27.80078125 C12.8174826 28.99229294 12.81465271 30.18380463 12.81173706 31.41142273 C12.80055433 35.21188456 12.7754528 39.01210956 12.75 42.8125 C12.73996775 45.39127263 12.73084233 47.97004897 12.72265625 50.54882812 C12.70062116 56.86597648 12.666104 63.1829481 12.625 69.5 C6.685 69.5 0.745 69.5 -5.375 69.5 C-5.3843457 68.07212158 -5.39369141 66.64424316 -5.40332031 65.1730957 C-5.44322049 59.87069611 -5.50898024 54.56887669 -5.58251953 49.2668457 C-5.61072882 46.97297626 -5.63194353 44.67900962 -5.64599609 42.38500977 C-5.66742551 39.08559407 -5.71407783 35.78734698 -5.765625 32.48828125 C-5.76685364 31.46414627 -5.76808228 30.44001129 -5.76934814 29.38484192 C-5.86100509 24.91965547 -5.91887522 22.24489902 -8.28808594 18.37573242 C-12.01934859 15.0220484 -15.0347123 15.168888 -19.8984375 15.2109375 C-23.37148981 15.61630954 -25.00983681 16.99149359 -27.375 19.5 C-28.3726048 20.50238948 -29.37214695 21.50286121 -30.375 22.5 C-31.59064664 9.38114663 -31.59064664 9.38114663 -28.76953125 5.015625 C-20.92950346 -1.86830184 -9.83162725 -4.34823436 0 0 Z " fill="#0B6CF8" transform="translate(109.375,57.5)"/>
<path d="M0 0 C4.29 0 8.58 0 13 0 C13 22.44 13 44.88 13 68 C7.72 68 2.44 68 -3 68 C-3 53.81 -3 39.62 -3 25 C-6.3 25 -9.6 25 -13 25 C-17 16.25 -17 16.25 -17 14 C-15.3962669 13.35309078 -13.79199694 12.70751236 -12.1875 12.0625 C-11.29417969 11.70285156 -10.40085937 11.34320313 -9.48046875 10.97265625 C-7.6729091 10.26386514 -5.84192591 9.6139753 -4 9 C-2.87914688 6.6569191 -2.87914688 6.6569191 -2 4 C-1.34 2.68 -0.68 1.36 0 0 Z " fill="#086AF8" transform="translate(64,58)"/>
</svg>
